HIERARCHY
ROOT Hips
{
	OFFSET 0.000000 0.000000 0.000000
	CHANNELS 6 Xposition Yposition Zposition Zrotation Yrotation Xrotation
	JOINT Spine
	{
		OFFSET 0.000000 -0.000005 8.329106
		CHANNELS 3 Zrotation Yrotation Xrotation
		JOINT Spine1
		{
			OFFSET 0.000000 -0.000022 22.729408
			CHANNELS 3 Zrotation Yrotation Xrotation
			JOINT Neck
			{
				OFFSET 0.000000 -0.000023 24.760899
				CHANNELS 3 Zrotation Yrotation Xrotation
				JOINT Head
				{
					OFFSET 0.000000 -2.031501 15.744046
					CHANNELS 3 Zrotation Yrotation Xrotation
					End Site
					{
						OFFSET 0.000000 -0.000019 20.314884
					}
				}
			}
			JOINT LeftShoulder
			{
				OFFSET 4.090893 0.536973 19.993153
				CHANNELS 3 Zrotation Yrotation Xrotation
				JOINT LeftArm
				{
					OFFSET 14.597431 0.000000 0.000000
					CHANNELS 3 Zrotation Yrotation Xrotation
					JOINT LeftForeArm
					{
						OFFSET 28.623245 0.000000 0.000000
						CHANNELS 3 Zrotation Yrotation Xrotation
						JOINT LeftHand
						{
							OFFSET 26.601603 0.000000 0.000000
							CHANNELS 3 Zrotation Yrotation Xrotation
							End Site
							{
								OFFSET 15.236179 0.000000 0.000000
							}
						}
					}
				}
			}
			JOINT RightShoulder
			{
				OFFSET -4.034451 0.536973 19.993153
				CHANNELS 3 Zrotation Yrotation Xrotation
				JOINT RightArm
				{
					OFFSET -14.597431 0.000000 0.000000
					CHANNELS 3 Zrotation Yrotation Xrotation
					JOINT RightForeArm
					{
						OFFSET -28.623253 0.000000 0.000000
						CHANNELS 3 Zrotation Yrotation Xrotation
						JOINT RightHand
						{
							OFFSET -26.601603 0.000000 0.000000
							CHANNELS 3 Zrotation Yrotation Xrotation
							End Site
							{
								OFFSET -15.236179 0.000000 0.000000
							}
						}
					}
				}
			}
		}
	}
	JOINT LeftUpLeg
	{
		OFFSET 10.157450 0.000000 0.000000
		CHANNELS 3 Zrotation Yrotation Xrotation
		JOINT LeftLeg
		{
			OFFSET 0.000000 0.000035 -42.718693
			CHANNELS 3 Zrotation Yrotation Xrotation
			JOINT LeftFoot
			{
				OFFSET 0.000000 0.000037 -44.785763
				CHANNELS 3 Zrotation Yrotation Xrotation
				JOINT LeftToeBase
				{
					OFFSET 0.000000 -15.236171 -6.602339
					CHANNELS 3 Zrotation Yrotation Xrotation
					End Site
					{
						OFFSET 0.000000 -4.062982 0.000000
					}
				}
			}
		}
	}
	JOINT RightUpLeg
	{
		OFFSET -10.157450 0.000000 0.000000
		CHANNELS 3 Zrotation Yrotation Xrotation
		JOINT RightLeg
		{
			OFFSET 0.000000 0.000035 -42.718693
			CHANNELS 3 Zrotation Yrotation Xrotation
			JOINT RightFoot
			{
				OFFSET 0.000000 0.000037 -44.785763
				CHANNELS 3 Zrotation Yrotation Xrotation
				JOINT RightToeBase
				{
					OFFSET 0.000000 -15.236171 -6.602339
					CHANNELS 3 Zrotation Yrotation Xrotation
					End Site
					{
						OFFSET 0.000000 -4.062982 0.000000
					}
				}
			}
		}
	}
}
MOTION
Frames: 9
Frame Time: 0.041667
124.768341 5.060326 89.967430 206.211703 3.690754 -11.393084 -1.122374 -5.048570 -12.680528 -0.746854 -0.950798 19.743799 8.940477 -7.448784 11.125775 13.011692 11.562346 6.709486 2.308648 -17.044546 -8.742897 -19.397044 25.295075 -4.354725 -18.070608 -14.348161 -10.579443 -2.406694 4.532674 -12.969548 -7.516378 15.996383 -5.916290 19.075303 -19.910292 20.622843 118.519573 32.352677 55.387285 7.593378 26.762592 5.193887 -14.696923 8.136214 8.234367 -8.424783 4.842308 19.513442 8.627280 -11.716400 -4.376970 0.000001 0.000000 -0.000001 5.855586 8.751081 -75.637214 -52.578649 -19.306261 77.633330 -26.407888 -5.144174 3.075749 0.000001 0.000004 -0.000002 
124.546600 5.167435 89.908752 207.043989 3.433070 -11.137071 -1.256745 -4.898379 -12.815235 -0.761478 -0.806626 19.576970 8.951059 -7.370837 11.084513 12.992281 11.473637 6.757615 2.309101 -17.021352 -8.714100 -19.491137 25.310080 -4.372002 -18.064136 -14.386561 -10.653135 -2.359603 4.508853 -13.046239 -7.613761 16.010431 -5.898878 19.033053 -19.862134 20.367937 118.534231 32.110570 55.141295 7.602146 26.725832 5.291101 -14.843925 8.358800 7.989422 -8.481592 4.928361 19.560537 8.126014 -11.732013 -4.343934 0.000000 -0.000001 -0.000000 6.028434 8.392392 -74.937666 -51.960890 -19.621856 76.461844 -26.078304 -5.616869 3.399569 0.000002 -0.000001 0.000002 
124.318619 5.288775 89.848373 207.895795 3.195102 -10.930480 -1.393455 -4.756351 -12.929827 -0.776328 -0.656854 19.439096 8.892054 -7.345852 11.121692 12.925512 11.503614 6.689628 2.272798 -17.044466 -8.660781 -19.611973 25.344742 -4.574802 -18.039153 -14.371176 -10.629050 -2.378314 4.496947 -13.016912 -7.677556 15.989365 -5.876863 18.929326 -19.796352 20.143237 118.560227 31.907816 54.928245 7.675487 26.721136 5.371463 -14.813403 8.588650 7.820860 -8.629702 4.917883 19.650398 7.543683 -11.778223 -4.310962 0.000001 -0.000000 0.000002 6.216372 8.038503 -74.213434 -51.312325 -19.690286 75.268131 -25.637544 -6.077115 3.777630 0.000002 -0.000005 -0.000004 
124.091385 5.399806 89.773735 208.732657 2.907803 -10.707931 -1.500792 -4.557367 -13.030933 -0.782384 -0.525987 19.277389 8.848823 -7.320884 11.117566 12.875266 11.530703 6.644870 2.198479 -17.033250 -8.649064 -19.663399 25.322996 -4.718259 -18.026816 -14.313326 -10.587350 -2.375053 4.500987 -12.964236 -7.777560 15.994881 -5.902543 18.824075 -19.789642 19.984246 118.615879 31.726915 54.777755 7.649769 26.709303 5.432070 -14.882390 8.826808 7.616931 -8.439192 4.903745 19.713825 6.713574 -11.874917 -4.272343 0.000001 0.000000 -0.000002 6.419220 7.715070 -73.524425 -50.526833 -19.829202 74.085231 -25.229920 -6.273401 4.067532 -0.000000 0.000011 0.000001 
123.856216 5.516050 89.707443 209.604080 2.686373 -10.506594 -1.652550 -4.458732 -13.147578 -0.798238 -0.337940 19.181854 8.847544 -7.266452 11.053273 12.845862 11.474650 6.625886 2.204286 -17.050539 -8.605245 -19.797754 25.353889 -4.688228 -17.999270 -14.409297 -10.664908 -2.329815 4.483786 -13.051594 -7.838094 16.002237 -5.913098 18.696791 -19.791551 19.709604 118.654265 31.474949 54.546584 7.647561 26.777963 5.544801 -14.964372 8.992475 7.532047 -8.585062 5.002566 19.705000 6.208064 -12.026782 -4.345280 0.000001 0.000000 -0.000002 6.587252 7.395795 -72.752218 -49.813055 -19.843291 72.859820 -24.758387 -6.488593 4.348766 0.000005 0.000000 0.000012 
123.620346 5.656764 89.637505 210.515938 2.486761 -10.327542 -1.828183 -4.272642 -13.265224 -0.842001 -0.287300 19.102924 8.814575 -7.204729 11.011539 12.787245 11.453636 6.582512 2.158185 -17.028299 -8.595868 -19.894499 25.369751 -4.780709 -17.997934 -14.414523 -10.660546 -2.335480 4.438341 -13.047229 -7.976613 15.994833 -5.870597 18.712403 -19.753356 19.551072 118.818476 31.481086 54.256298 8.076603 26.267427 5.164654 -15.102496 9.174696 7.447723 -8.624117 5.019572 19.696293 5.568395 -12.107668 -4.354169 0.000000 0.000000 -0.000000 6.762706 7.041467 -71.953973 -48.854011 -19.893505 71.644668 -24.143018 -6.921308 4.531342 -0.000001 0.000000 0.000000 
123.380608 5.767663 89.556648 211.367143 2.254397 -10.112144 -1.945315 -4.159170 -13.394427 -0.847606 -0.107735 19.019761 8.778498 -7.202144 10.954362 12.750145 11.505849 6.525540 2.111763 -17.048468 -8.554573 -19.992215 25.361484 -4.955001 -18.002656 -14.409083 -10.620697 -2.364683 4.455032 -13.008552 -8.064003 15.983805 -5.857451 18.626146 -19.748597 19.192323 118.801660 31.209409 54.046297 8.006181 26.374594 5.365536 -15.120473 9.358848 7.301425 -8.941109 5.145913 19.717397 5.205022 -12.227204 -4.389788 0.000002 -0.000000 -0.000004 6.973009 6.672032 -71.222392 -47.844304 -19.840231 70.348981 -23.777261 -7.177705 4.824280 -0.000001 0.000005 0.000000 
123.145905 5.872053 89.483025 212.236394 2.031154 -9.898894 -2.078067 -4.024309 -13.477774 -0.866116 0.018045 18.882804 8.738241 -7.129320 10.929043 12.672486 11.483822 6.405238 2.063778 -17.049356 -8.548818 -20.040137 25.407042 -4.811713 -18.027898 -14.525116 -10.695398 -2.303058 4.415847 -13.102073 -8.152982 16.016896 -5.826394 18.560633 -19.776533 19.003099 119.159029 31.164500 53.204670 9.324833 25.154275 4.480672 -15.297202 9.581956 7.117499 -9.021221 5.188843 19.774330 4.742542 -12.370886 -4.393754 -0.000001 0.000000 0.000002 7.197802 6.372228 -70.456366 -46.907253 -19.579412 69.064954 -23.096990 -7.314038 5.030865 0.000004 -0.000004 -0.000002 
122.900803 5.975657 89.398964 213.092818 1.793956 -9.666645 -2.186147 -3.879531 -13.613363 -0.875957 0.150187 18.796788 8.714223 -7.078534 10.841404 12.620867 11.443561 6.368067 2.006421 -17.068101 -8.522251 -20.136771 25.428859 -4.927688 -18.053325 -14.535920 -10.681254 -2.337011 4.342648 -13.092770 -8.124061 15.963079 -5.889652 18.310904 -19.681284 18.167168 119.022316 30.359894 52.317220 9.302096 25.216859 4.921143 -15.358111 9.828258 6.942530 -9.263071 5.214238 19.820806 4.397879 -12.481246 -4.401964 0.000000 -0.000000 0.000001 7.428042 6.121396 -69.729176 -45.825443 -19.462694 67.709209 -22.713299 -7.798439 5.389790 0.000001 -0.000001 -0.000006 
